<?xml version="1.0" encoding="UTF-8" standalone="no"?>
<svg viewBox="0 0 97.98 97.98" version="1.1" id="svg6" sodipodi:docname="favicon.svg" inkscape:version="1.2.1 (9c6d41e410, 2022-07-14)" xmlns:inkscape="http://www.inkscape.org/namespaces/inkscape" xmlns:sodipodi="http://sodipodi.sourceforge.net/DTD/sodipodi-0.dtd" xmlns="http://www.w3.org/2000/svg" xmlns:svg="http://www.w3.org/2000/svg">
  <defs id="defs10"/>
  <sodipodi:namedview id="namedview8" pagecolor="#ffffff" bordercolor="#000000" borderopacity="0.25" inkscape:showpageshadow="2" inkscape:pageopacity="0.0" inkscape:pagecheckerboard="0" inkscape:deskcolor="#d1d1d1" showgrid="false" inkscape:zoom="1.4142136" inkscape:cx="142.83557" inkscape:cy="28.991378" inkscape:window-width="2560" inkscape:window-height="1371" inkscape:window-x="0" inkscape:window-y="0" inkscape:window-maximized="1" inkscape:current-layer="svg6"/>
  <style id="style2">
    .a {
      fill: #333;
    }
    @media (prefers-color-scheme: dark) {
      .a {
        fill: #eee;
      }
    }
  </style>
  <path id="path589" style="fill:#333333;fill-opacity:1;stroke-width:0.821158" d="m 88.541875,11.535647 c -1.417304,0.566231 -2.92551,0.942701 -4.25154,1.698349 -3.222436,1.836345 -7.651357,5.862448 -10.199163,8.280863 -3.236344,3.072052 -7.869233,7.893788 -10.695738,11.346508 -1.660697,2.028624 -3.146126,4.196836 -4.718637,6.294545 -1.837035,2.667526 -3.504559,5.42724 -5.076908,8.24005 -6.827185,3.615302 -13.740629,7.072553 -20.60919,10.586899 -10.164683,4.962821 -20.356044,9.870973 -30.5861357,14.697853 0.00581,0.0053 0.01219,0.01056 0.018111,0.01587 1.372131,1.274918 2.7171654,2.578184 4.0497313,3.895542 9.6409184,-4.55971 19.2499344,-9.18931 28.8333734,-13.867952 4.675335,-2.391075 9.363939,-4.767322 14.040283,-7.172063 -3.194318,6.478812 -6.14812,13.09022 -9.484898,19.491322 -0.796565,1.637052 -6.088749,8.764395 -3.310529,10.82952 0.978324,0.727271 2.407922,0.381258 3.612098,0.571406 4.414933,-2.4103 8.532069,-5.369573 12.532413,-8.414645 7.0791,-5.943924 13.741964,-12.354286 20.554764,-18.595664 1.152525,-1.10452 2.326876,-2.187893 3.498743,-3.271985 -1.485162,2.643248 -2.995144,5.271337 -4.532711,7.886321 -1.939257,3.62765 -4.450133,6.90153 -6.59612,10.398697 -0.249884,0.407206 -1.982213,3.215354 -1.721021,4.040663 0.399821,1.263413 1.457693,2.214676 2.185855,3.321869 1.334934,-0.111196 2.709631,0.01022 4.004384,-0.33332 2.430781,-0.644955 7.347873,-3.606665 9.224136,-4.729979 4.744051,-2.840233 9.36806,-5.893608 13.988133,-8.929365 3.117798,-2.048871 0.219942,-6.456865 -2.897857,-4.407996 -4.533489,2.979587 -9.075661,5.962871 -13.722831,8.763839 -1.518934,0.915494 -3.040665,1.829361 -4.605271,2.664298 -0.198941,0.106169 -0.411244,0.185382 -0.616745,0.2789 1.82012,-2.764814 3.738016,-5.472115 5.305918,-8.394238 2.238261,-3.807946 4.449529,-7.626382 6.555301,-11.509766 0.239215,-0.441155 2.859127,-5.318821 3.106457,-6.01111 0.381176,-1.066892 0.519805,-2.205612 0.780021,-3.308264 -1.388907,-0.687945 -2.651177,-1.743084 -4.167649,-2.063414 -0.520746,-0.11 -0.892971,0.577766 -1.312876,0.904728 -0.675071,0.525571 -1.319064,1.093376 -1.968176,1.650731 -3.443238,2.956588 -6.795433,6.018446 -10.072178,9.158382 -6.695068,6.13398 -13.24698,12.429089 -20.187439,18.289553 -1.610649,1.227341 -3.253793,2.401257 -4.911379,3.555421 4.469485,-8.59583 8.245905,-17.570279 12.881593,-26.073838 5.477553,-2.924658 10.895236,-5.95701 16.176262,-9.22414 3.55686,-2.200519 10.457081,-6.857586 13.867951,-9.840895 1.481806,-1.296068 2.743264,-2.821815 4.115487,-4.233399 2.340959,-3.250475 4.359474,-6.782432 3.875136,-10.951964 -0.112264,-0.966042 -0.321387,-1.964507 -0.818565,-2.800348 -0.533888,-0.897558 -1.229113,-1.823273 -2.18358,-2.247079 -1.214729,-0.539379 -2.639556,-0.320615 -3.959037,-0.480708 z m 1.040772,4.476021 c 0.243417,-0.03676 0.452284,0.236044 0.643969,1.063451 0.631338,2.725129 -0.991605,5.130281 -2.399006,7.280903 -1.176464,1.236528 -2.248024,2.583283 -3.530472,3.709608 -3.261548,2.864511 -9.918897,7.367826 -13.305619,9.464493 -2.659431,1.646408 -5.357859,3.224821 -8.076789,4.768527 1.471961,-1.975146 2.85915,-4.016872 4.417069,-5.924945 2.736971,-3.352175 7.144264,-7.940094 10.27625,-10.929289 2.712939,-2.589253 5.708501,-5.277221 8.845468,-7.398812 0.715879,-0.484163 1.519491,-0.825409 2.278824,-1.238048 0.329084,-0.412748 0.6069,-0.759142 0.850306,-0.795888 z"/>
</svg>