<?xml version="1.0" encoding="UTF-8" standalone="no"?>
<!-- Generator: Adobe Illustrator 24.2.3, SVG Export Plug-In . SVG Version: 6.00 Build 0)  -->
<svg version="1.1" id="Layer_1" x="0px" y="0px" viewBox="0 0 121.9 121.9" style="enable-background:new 0 0 121.9 121.9;" xml:space="preserve" sodipodi:docname="logo.svg" inkscape:version="1.2.1 (9c6d41e410, 2022-07-14)" xmlns:inkscape="http://www.inkscape.org/namespaces/inkscape" xmlns:sodipodi="http://sodipodi.sourceforge.net/DTD/sodipodi-0.dtd" xmlns="http://www.w3.org/2000/svg" xmlns:svg="http://www.w3.org/2000/svg"><defs id="defs2146"/><sodipodi:namedview id="namedview2144" pagecolor="#ffffff" bordercolor="#000000" borderopacity="0.25" inkscape:showpageshadow="2" inkscape:pageopacity="0.0" inkscape:pagecheckerboard="0" inkscape:deskcolor="#d1d1d1" showgrid="false" inkscape:zoom="8.4249384" inkscape:cx="60.890653" inkscape:cy="60.890653" inkscape:window-width="2560" inkscape:window-height="1371" inkscape:window-x="0" inkscape:window-y="0" inkscape:window-maximized="1" inkscape:current-layer="Layer_1"/>

<path id="path589" style="fill:#000000;fill-opacity:1;stroke-width:1.0017" d="m 109.19799,15.260701 c -1.72891,0.690726 -3.56872,1.149969 -5.1863,2.071758 -3.93095,2.240096 -9.333638,7.151403 -12.441621,10.101545 -3.947905,3.747492 -9.599411,9.629366 -13.047368,13.841222 -2.025833,2.47465 -3.83785,5.119579 -5.7561,7.678503 -2.240945,3.254024 -4.275096,6.620507 -6.193155,10.051759 -8.328248,4.410184 -16.761728,8.627568 -25.140454,12.9146 -12.399553,6.053977 -24.831651,12.041267 -37.3109934,17.929415 0.00704,0.0064 0.014866,0.01288 0.022088,0.01936 1.6738168,1.555229 3.3145786,3.145039 4.9401316,4.75204 11.7606288,-5.562238 23.4823428,-11.20973 35.1728558,-16.917047 5.703284,-2.916792 11.422751,-5.815496 17.127263,-8.748958 -3.896639,7.903284 -7.499883,15.968317 -11.570302,23.776806 -0.971703,1.996984 -7.427459,10.691396 -4.038403,13.210566 1.193425,0.88717 2.937343,0.46508 4.406277,0.69703 5.385627,-2.94024 10.407979,-6.55015 15.287867,-10.264733 8.635554,-7.250792 16.763354,-15.070576 25.074061,-22.684223 1.405931,-1.347367 2.838476,-2.668937 4.268004,-3.991384 -1.811706,3.224409 -3.653676,6.430326 -5.52931,9.620257 -2.365625,4.425248 -5.428558,8.418944 -8.04638,12.68502 -0.304821,0.496736 -2.418038,3.922301 -2.099417,4.929067 0.487727,1.541195 1.778191,2.701609 2.666452,4.052236 1.628437,-0.13565 3.305384,0.0125 4.884817,-0.4066 2.965219,-0.786764 8.963417,-4.399654 11.252209,-5.769947 5.787108,-3.464705 11.427778,-7.189413 17.063658,-10.892631 3.8033,-2.499348 0.2683,-7.876512 -3.535,-5.377165 -5.53025,3.634698 -11.07109,7.273905 -16.740019,10.690711 -1.852903,1.11678 -3.709206,2.231575 -5.617821,3.250087 -0.242682,0.129512 -0.501658,0.226141 -0.752346,0.340221 2.220306,-3.372703 4.55988,-6.675248 6.472508,-10.239847 2.730382,-4.645185 5.427838,-9.303166 7.996598,-14.040375 0.29181,-0.53815 3.48775,-6.488251 3.78947,-7.33275 0.46497,-1.301466 0.63409,-2.690552 0.95151,-4.03564 -1.69427,-0.839201 -3.23408,-2.12633 -5.08397,-2.517089 -0.63524,-0.134185 -1.08931,0.704797 -1.60154,1.103647 -0.82349,0.641127 -1.609083,1.333773 -2.400907,2.013671 -4.200293,3.606642 -8.289524,7.3417 -12.286714,11.172001 -8.167087,7.482635 -16.159545,15.161825 -24.625971,22.310808 -1.96478,1.497192 -3.969199,2.929212 -5.991229,4.337138 C 61.030614,85.106017 65.637344,74.15839 71.29226,63.785185 77.974138,60.217495 84.582994,56.51843 91.025137,52.532969 95.36403,49.84863 103.78139,44.167632 107.94219,40.528394 c 1.8076,-1.58103 3.34641,-3.442237 5.02034,-5.164181 2.85567,-3.965145 5.31797,-8.27366 4.72715,-13.359931 -0.13694,-1.178442 -0.39205,-2.396436 -0.99854,-3.416049 -0.65127,-1.094901 -1.49936,-2.22415 -2.66368,-2.741137 -1.48181,-0.65797 -3.21991,-0.391107 -4.8295,-0.586399 z m 1.26961,5.460147 c 0.29693,-0.04484 0.55173,0.287942 0.78556,1.297267 0.77013,3.324293 -1.20963,6.258257 -2.92647,8.881729 -1.43513,1.508398 -2.74229,3.151259 -4.30671,4.525224 -3.97865,3.49432 -12.099729,8.987762 -16.231073,11.545415 -3.24415,2.008398 -6.535865,3.933851 -9.852604,5.816966 1.795603,-2.409414 3.487787,-4.900047 5.388235,-7.22764 3.338737,-4.089206 8.715043,-9.685853 12.535652,-13.332271 3.309417,-3.158542 6.96361,-6.437503 10.79029,-9.02556 0.87327,-0.590615 1.85358,-1.006889 2.77986,-1.510253 0.40144,-0.503498 0.74033,-0.926052 1.03726,-0.970877 z"/></svg>