<?xml version="1.0" encoding="UTF-8" standalone="no"?>
<!-- Generator: Adobe Illustrator 24.2.3, SVG Export Plug-In . SVG Version: 6.00 Build 0)  -->

<svg
   version="1.1"
   id="Layer_1"
   x="0px"
   y="0px"
   viewBox="0 0 121.9 121.9"
   style="enable-background:new 0 0 121.9 121.9;"
   xml:space="preserve"
   sodipodi:docname="logo-dark.svg"
   inkscape:version="1.2.1 (9c6d41e410, 2022-07-14)"
   xmlns:inkscape="http://www.inkscape.org/namespaces/inkscape"
   xmlns:sodipodi="http://sodipodi.sourceforge.net/DTD/sodipodi-0.dtd"
   xmlns="http://www.w3.org/2000/svg"
   xmlns:svg="http://www.w3.org/2000/svg"><defs
   id="defs1581" /><sodipodi:namedview
   id="namedview1579"
   pagecolor="#ffffff"
   bordercolor="#000000"
   borderopacity="0.25"
   inkscape:showpageshadow="2"
   inkscape:pageopacity="0.0"
   inkscape:pagecheckerboard="0"
   inkscape:deskcolor="#d1d1d1"
   showgrid="false"
   inkscape:zoom="8.4249384"
   inkscape:cx="60.890653"
   inkscape:cy="60.890653"
   inkscape:window-width="2560"
   inkscape:window-height="1371"
   inkscape:window-x="0"
   inkscape:window-y="0"
   inkscape:window-maximized="1"
   inkscape:current-layer="Layer_1" />

<path
   id="path589"
   style="fill:#eeeeee;fill-opacity:1;stroke-width:0.995917"
   d="m 108.91929,15.524624 c -1.71893,0.686736 -3.54811,1.143326 -5.15635,2.059791 -3.908233,2.227155 -9.279716,7.110092 -12.369745,10.043193 -3.925102,3.725845 -9.54396,9.573742 -12.972001,13.761268 -2.014126,2.460355 -3.815684,5.090006 -5.722856,7.634148 -2.227992,3.235228 -4.250398,6.582264 -6.157374,9.993695 C 58.26082,63.401428 49.876059,67.59445 41.545733,71.856718 29.217806,77.875725 16.857522,83.828429 4.4502661,89.682564 c 0.00703,0.0064 0.014784,0.01281 0.021964,0.01925 1.6641474,1.546246 3.2954323,3.126872 4.9115946,4.72459 C 21.076519,88.896295 32.730523,83.281425 44.353506,77.607076 c 5.670339,-2.899943 11.35677,-5.781902 17.028332,-8.698419 -3.874132,7.857631 -7.456561,15.876076 -11.503471,23.639459 -0.96609,1.985449 -7.384555,10.629634 -4.015075,13.134254 1.186531,0.88205 2.920375,0.4624 4.380824,0.69301 5.354517,-2.92326 10.347861,-6.512321 15.199557,-10.205444 8.585671,-7.208908 16.666524,-14.983521 24.929222,-22.553187 1.397805,-1.339584 2.822081,-2.65352 4.243344,-3.968328 -1.801234,3.205783 -3.632569,6.393181 -5.497361,9.564685 -2.351969,4.399686 -5.397209,8.370312 -7.999904,12.611745 -0.303064,0.493867 -2.404067,3.899644 -2.087288,4.900595 0.484911,1.532292 1.767919,2.686003 2.651048,4.028824 1.619034,-0.13486 3.286294,0.0124 4.856595,-0.40425 2.948099,-0.782217 8.911645,-4.374237 11.187214,-5.736614 5.753677,-3.444691 11.361757,-7.147884 16.965087,-10.82971 3.78133,-2.484911 0.26675,-7.831013 -3.51458,-5.346104 -5.49831,3.613702 -11.00714,7.231887 -16.643321,10.628956 -1.842193,1.110329 -3.687779,2.218685 -5.585364,3.231313 -0.241279,0.128764 -0.498764,0.224835 -0.748,0.338256 2.207477,-3.353221 4.533539,-6.636689 6.435122,-10.180697 2.714607,-4.618352 5.396473,-9.249426 7.950393,-13.959271 0.29013,-0.535041 3.46761,-6.450771 3.76758,-7.290392 0.46229,-1.293948 0.63043,-2.67501 0.94602,-4.012328 -1.68449,-0.834353 -3.2154,-2.114047 -5.05461,-2.502549 -0.63157,-0.13341 -1.08301,0.700726 -1.59228,1.097272 -0.818736,0.637423 -1.599784,1.326068 -2.38704,2.002039 -4.176026,3.585808 -8.241634,7.29929 -12.215735,11.107466 -8.11991,7.439411 -16.066198,15.074243 -24.483723,22.181929 -1.953427,1.488544 -3.946264,2.912292 -5.956617,4.312085 5.420679,-10.425192 10.000795,-21.30958 15.623049,-31.622864 6.643284,-3.547082 13.213957,-7.224779 19.618889,-11.187218 4.31383,-2.668833 12.682557,-8.317015 16.819327,-11.935231 1.79716,-1.571897 3.32708,-3.422353 4.99134,-5.13435 2.83917,-3.94224 5.28725,-8.225867 4.69984,-13.282757 -0.13615,-1.171635 -0.38978,-2.382593 -0.99277,-3.396317 -0.64751,-1.088576 -1.4907,-2.211302 -2.64829,-2.725302 -1.47325,-0.654169 -3.20131,-0.388848 -4.8016,-0.583012 z m 1.26227,5.428606 c 0.29522,-0.04458 0.54854,0.286279 0.78102,1.289774 0.76569,3.30509 -1.20264,6.222106 -2.90956,8.830423 -1.42684,1.499685 -2.72645,3.133056 -4.28183,4.499085 -3.955668,3.474135 -12.029832,8.935844 -16.137315,11.478723 -3.22541,1.996796 -6.498117,3.911127 -9.795689,5.783364 1.785224,-2.395496 3.467634,-4.871742 5.357109,-7.18589 3.319452,-4.065584 8.664703,-9.629902 12.463238,-13.255257 3.290305,-3.140297 6.923387,-6.400317 10.727957,-8.973424 0.86823,-0.587203 1.84287,-1.001073 2.7638,-1.501529 0.39912,-0.500589 0.73606,-0.920703 1.03127,-0.965269 z" /></svg>
